<?xml version="1.0" standalone="no"?><!DOCTYPE svg PUBLIC "-//W3C//DTD SVG 1.1//EN" "http://www.w3.org/Graphics/SVG/1.1/DTD/svg11.dtd"><svg t="1543549295908" class="icon" style="" viewBox="0 0 1706 1024" version="1.1" xmlns="http://www.w3.org/2000/svg" p-id="6258" xmlns:xlink="http://www.w3.org/1999/xlink" width="213.25" height="128"><defs><style type="text/css"></style></defs><path d="M853.333333 1024c-322.901333 0-619.434667-191.914667-853.333333-512C233.898667 191.914667 530.432 0 853.333333 0c322.944 0 619.477333 191.914667 853.333334 512-233.856 320.085333-530.389333 512-853.333334 512z m0-853.333333a341.333333 341.333333 0 0 0-341.333333 341.333333 341.333333 341.333333 0 1 0 682.666667 0 341.333333 341.333333 0 0 0-341.333334-341.333333z m0 512a170.666667 170.666667 0 1 1 0-341.333334 170.666667 170.666667 0 0 1 0 341.333334z" p-id="6259"></path></svg>